<?xml version="1.0" encoding="UTF-8"?>
<!DOCTYPE svg PUBLIC "-//W3C//DTD SVG 1.1//EN" "http://www.w3.org/Graphics/SVG/1.1/DTD/svg11.dtd">
<!-- Creator: CorelDRAW 2017 -->
<svg xmlns="http://www.w3.org/2000/svg" xml:space="preserve" width="45.8181mm" height="64.3466mm" version="1.1" style="shape-rendering:geometricPrecision; text-rendering:geometricPrecision; image-rendering:optimizeQuality; fill-rule:evenodd; clip-rule:evenodd"
viewBox="0 0 1186 1665"
 xmlns:xlink="http://www.w3.org/1999/xlink">
 <defs>
  <style type="text/css">
   <![CDATA[
    .fil0 {fill:#1C6E8C}
    .fil3 {fill:#1C6E8C;fill-rule:nonzero}
    .fil1 {fill:#36213E;fill-rule:nonzero}
    .fil2 {fill:#8AC6D0;fill-rule:nonzero}
   ]]>
  </style>
 </defs>
 <g id="Capa_x0020_1">
  <metadata id="CorelCorpID_0Corel-Layer"/>
  <path class="fil0" d="M292 186l-47 -5c-10,-76 -70,-177 -157,-173l0 62c143,-2 152,239 14,259 6,13 20,46 27,58 107,-56 104,-128 116,-148l45 -6 -5 200c1,0 2,0 2,0l57 0 -6 -200c16,1 28,2 47,6 19,56 53,130 117,147l25 -58c-149,-27 -121,-265 13,-259l0 -62c-88,-2 -147,94 -157,173l-46 6c0,-94 -1,-89 10,-186l-65 0c8,71 10,115 10,186z"/>
  <path class="fil1" d="M110 512l-31 0 0 356 31 0 0 -128 77 0 0 207 -120 0c-37,0 -67,-29 -67,-66l0 -447 121 0c43,0 66,29 66,66l0 208c-26,0 -52,0 -77,0l0 -196z"/>
  <path class="fil2" d="M287 434l121 0 0 446c0,37 -30,67 -66,67l-121 0 0 -447c0,-37 29,-66 66,-66zm12 435l31 0 0 -356 -31 0 0 356z"/>
  <path class="fil1" d="M442 879l0 -446 110 0 0 -66 78 0 0 579 -121 0c-38,0 -67,-30 -67,-67zm110 -11l0 -356 -31 0 0 356 31 0z"/>
  <path class="fil1" d="M743 434l0 512 -78 0 0 -512 78 0zm-78 -66l78 0 0 44 -78 0 0 -44z"/>
  <path class="fil1" d="M886 980l0 -34 -15 0c-23,0 -46,0 -69,0l-26 0 0 -446c0,-18 8,-35 20,-47 13,-13 30,-20 48,-20l121 0 0 558c0,17 -7,34 -20,47 -13,13 -30,20 -48,20l-121 0 0 -78 110 0zm0 -112l0 -356 -31 0 0 356 31 0z"/>
  <path class="fil1" d="M1065 434l121 0 0 446c0,37 -30,67 -66,67l-121 0 0 -447c0,-37 29,-66 66,-66zm12 435l31 0 0 -356 -31 0 0 356z"/>
  <path class="fil1" d="M397 1665l-51 0 0 -51c0,-22 18,-40 40,-40l51 0 0 51c0,22 -18,40 -40,40z"/>
  <polygon class="fil1" points="539,1095 477,1095 553,980 631,980 631,1661 539,1661 "/>
  <polygon class="fil1" points="733,1095 671,1095 747,980 825,980 825,1661 733,1661 "/>
  <path class="fil3" d="M158 1661l98 -294 -99 0 120 -217 -122 -5 65 -198 2 -21 0 22 121 0c7,0 13,-1 19,-3l-12 35 156 1 -192 310 86 0 -242 373z"/>
  <path class="fil3" d="M287 434l121 0 0 446c0,37 -30,67 -66,67l-121 0 0 -447c0,-37 29,-66 66,-66zm12 435l31 0 0 -356 -31 0 0 356z"/>
  <path class="fil3" d="M489 191c1,2 0,3 -1,2 -1,0 -3,-2 -4,-4 -4,-3 -12,1 -15,3 -6,5 -10,12 -12,20 6,-2 22,-20 22,-20 1,-1 2,0 4,1 1,1 2,3 1,4 0,1 -2,5 -1,10 1,4 23,-15 24,-15 1,-1 2,-2 4,0 1,2 1,3 1,4 -12,10 -18,16 -23,19 -8,4 -14,2 -14,-7 -6,6 -13,11 -17,10 -1,-1 -2,-2 -4,-3 -2,-2 -2,-5 -2,-7 0,-2 1,-4 2,-7 2,-5 6,-10 11,-14 8,-6 22,-7 25,3z"/>
  <path id="1" class="fil3" d="M506 200c-1,1 -3,2 -4,0 -1,-2 2,-5 3,-5l13 -16c2,-2 4,-4 4,-4 1,-1 2,0 4,2 1,1 2,3 1,4l-4 4c-4,4 -9,12 -7,20 1,5 1,9 -1,12 -1,2 -2,3 -3,4 -1,1 -3,2 -4,2 -2,1 -5,0 -7,-1 -10,-5 -5,-15 -5,-15 1,-1 2,-1 4,1 2,1 2,3 2,4 0,0 -2,5 -2,5 1,0 2,0 4,0 1,0 2,-1 4,-2 1,-1 2,-2 3,-3 1,-2 2,-6 1,-10 0,-2 -2,-2 3,-10l-7 8z"/>
  <path id="2" class="fil3" d="M583 115c1,-1 2,0 4,1 1,1 2,3 2,4 0,0 -13,18 -26,38l45 0c1,0 3,1 4,3 1,2 1,3 0,3l-52 0c-4,6 -7,11 -11,17l0 0c0,1 0,1 -1,1 -11,17 -16,27 -15,31 3,6 39,-22 39,-23 1,-1 2,-1 3,1 1,2 0,2 0,3 0,0 -40,39 -49,24 -3,-5 5,-22 17,-40 0,0 1,-2 1,-2 0,-13 -45,-12 -45,-12 -1,0 -3,-1 -4,-3 -1,-2 -1,-3 0,-3l59 0c15,-23 29,-43 30,-44zm-39 58c2,-3 4,-6 5,-8l-22 -1c5,2 14,6 17,9z"/>
  <path id="3" class="fil3" d="M581 175c1,-1 2,0 4,1 2,1 2,3 2,4l-6 10c6,-3 15,-6 18,-1 2,2 1,6 3,6 3,0 8,-1 13,-2 1,0 2,-1 3,0 1,2 1,2 -1,2 -5,2 -14,3 -17,3 -5,0 -6,-2 -10,-6 -3,-3 -18,11 -18,11 0,0 -9,16 -10,17 -1,1 -2,0 -4,-1 -2,-1 -2,-3 -2,-4l25 -40z"/>
  <path id="4" class="fil3" d="M620 185c1,-1 2,0 4,2 1,2 2,3 1,4 -1,0 -1,1 -1,1 -4,3 -7,9 -9,14 -1,5 -2,9 -1,11 1,0 2,0 3,0 2,-1 4,-2 5,-3 2,-2 5,-5 7,-9 1,-2 2,-5 3,-7 -3,-3 -5,-6 -7,-9 -1,-3 -2,-6 -2,-9 0,-2 1,-4 4,-5 2,0 3,0 4,1 2,1 4,3 5,6 1,2 2,4 2,6 0,2 0,5 0,8 4,1 10,1 16,-2 1,-1 2,-1 3,0 1,2 1,3 0,3 -8,5 -14,5 -20,3 -1,3 -2,6 -3,9 -2,4 -5,8 -7,10 -2,2 -4,3 -6,4 -2,1 -5,1 -7,-1 -1,-1 -2,-2 -4,-3 0,0 -1,-1 -1,-1 -3,-4 -3,-11 -1,-17 2,-6 5,-12 9,-15 1,0 1,-1 2,-1zm13 8c0,-3 0,-6 0,-8 0,-2 -1,-3 -1,-4 0,0 0,0 0,0 0,0 -1,0 -1,0 -1,0 -2,1 -2,3 0,2 0,4 1,5 1,1 1,3 3,4z"/>
  <path id="5" class="fil3" d="M704 194c0,-1 1,-2 2,-1 1,1 2,2 2,3 -4,8 -40,36 -50,41 -6,3 -17,6 -21,-1 -10,-15 57,-111 59,-111 6,-8 13,-14 18,-15 2,-1 4,-1 6,0 3,1 5,3 6,6 1,3 0,7 -3,13 -11,22 -58,58 -58,58 0,0 0,0 -1,0 -13,22 -22,42 -19,48 2,2 9,-1 11,-1 10,-5 44,-32 49,-40zm-3 -65c0,0 -14,21 -28,44 15,-12 38,-33 45,-48 3,-5 4,-9 3,-11 -1,0 -1,0 -2,0 -5,2 -12,7 -18,15z"/>
  <path id="6" class="fil3" d="M710 185c1,-1 2,0 4,2 1,2 2,3 1,4 -1,0 -1,1 -1,1 -4,3 -7,9 -9,14 -1,5 -2,9 -1,11 1,0 2,0 3,0 2,-1 4,-2 5,-3 2,-2 5,-5 7,-9 1,-2 2,-5 3,-7 -3,-3 -5,-6 -7,-9 -1,-3 -2,-6 -2,-9 0,-2 1,-4 4,-5 2,0 3,0 4,1 2,1 4,3 5,6 1,2 2,4 2,6 0,2 0,5 0,8 4,1 10,1 16,-2 1,-1 2,-1 3,0 1,2 1,3 0,3 -8,5 -14,5 -20,3 -1,3 -2,6 -3,9 -2,4 -5,8 -7,10 -2,2 -4,3 -6,4 -2,1 -5,1 -7,-1 -1,-1 -2,-2 -4,-3 0,0 -1,-1 -1,-1 -3,-4 -3,-11 -1,-17 2,-6 5,-12 9,-15 1,0 1,-1 2,-1zm13 8c0,-3 0,-6 0,-8 0,-2 -1,-3 -1,-4 0,0 0,0 0,0 0,0 -1,0 -1,0 -1,0 -2,1 -2,3 0,2 0,4 1,5 1,1 1,3 3,4z"/>
  <path id="7" class="fil3" d="M836 228c1,0 3,2 4,3 1,2 1,3 -1,3 -37,-3 -65,-2 -84,0 -12,20 -25,39 -31,39 -8,0 -15,-5 -19,-11 -2,-4 -3,-8 -1,-11 1,-4 4,-7 9,-10 7,-5 19,-10 37,-12 4,-6 10,-18 13,-24 -5,6 -17,11 -21,10 -6,-1 -8,-4 -6,-10 2,-12 21,-28 33,-14 4,-5 6,-8 6,-8 1,-1 2,0 4,1 2,1 2,3 2,4l-2 3 0 0c0,0 -9,17 -20,36 19,-2 44,-2 77,1zm-90 8c-13,3 -22,6 -28,11 -4,3 -7,6 -8,9 -1,3 -1,5 0,7 2,2 5,4 10,4 5,0 15,-14 25,-31zm21 -42c-8,-10 -31,17 -22,17 5,0 18,-8 22,-17z"/>
  <path id="8" class="fil3" d="M799 180c1,-1 3,0 4,2 1,2 2,3 1,4 -4,3 -10,11 -14,18 -2,5 -2,8 -1,9 7,1 27,-18 27,-18 1,-1 2,-2 3,-1 2,2 1,2 0,3 0,0 -29,32 -37,18 -2,-4 -1,-10 2,-16 4,-8 10,-15 14,-19zm7 -10c0,0 1,-1 1,-1 1,-2 3,-5 3,-6 0,-1 1,-2 2,-2 1,-1 4,1 4,2 0,2 -7,12 -12,11 0,0 0,0 0,0 -1,0 0,-1 1,-2 1,-1 2,-1 2,-1z"/>
  <path id="9" class="fil3" d="M846 191c1,2 0,3 -1,2 -1,0 -3,-2 -4,-4 -4,-3 -12,1 -15,3 -6,5 -10,12 -12,20 6,-2 22,-20 22,-20 1,-1 2,0 4,1 1,1 2,3 1,4 0,1 -2,5 -1,10 1,4 23,-15 24,-15 1,-1 2,-2 4,0 1,2 1,3 1,4 -12,10 -18,16 -23,19 -8,4 -14,2 -14,-7 -6,6 -13,11 -17,10 -1,-1 -2,-2 -4,-3 -2,-2 -2,-5 -2,-7 0,-2 1,-4 2,-7 2,-5 6,-10 11,-14 8,-6 22,-7 25,3z"/>
  <path id="10" class="fil3" d="M810 271c2,-1 5,-2 8,-3 4,-2 7,-6 9,-9 0,-1 1,-1 1,-2 -2,1 -4,2 -7,4 -4,3 -8,6 -11,10zm12 3c-8,4 -18,5 -18,5 -12,26 35,4 41,-6 1,-1 2,-2 4,-1 1,1 1,2 1,3 -5,9 -32,28 -44,21 -6,-3 -10,-10 -8,-17 1,-4 4,-9 7,-13 4,-4 8,-8 11,-10 5,-4 10,-6 12,-5 2,0 3,1 4,3 2,2 2,4 2,6 0,2 -1,3 -2,5 -2,4 -5,8 -10,10z"/>
  <path id="11" class="fil3" d="M844 275l0 0c-1,-2 -2,-3 -1,-4l9 -9c1,-1 4,1 5,2 1,1 2,3 1,4 0,0 -12,16 -15,25 -1,2 1,2 3,0 8,-6 20,-18 30,-32l1 -2c1,-1 2,-1 3,1 2,1 3,5 3,5 0,0 -7,9 -7,13 0,0 6,-1 11,-5 1,-1 3,-3 4,-1 1,2 1,3 1,3 0,0 -17,15 -22,4l0 0c-6,7 -13,13 -18,16 -3,2 -5,3 -7,4 -3,1 -5,0 -8,-2 -1,-1 -1,-2 -2,-3 -1,-4 4,-12 8,-19z"/>
  <path id="12" class="fil3" d="M895 264c1,-1 2,0 4,2 1,2 2,3 1,4 -1,0 -1,1 -1,1 -4,3 -7,9 -9,14 -1,5 -2,9 -1,11 1,0 2,0 3,0 2,-1 4,-2 5,-3 2,-2 5,-5 7,-9 1,-2 2,-5 3,-7 -3,-3 -5,-6 -7,-9 -1,-3 -2,-6 -2,-9 0,-2 1,-4 4,-5 2,0 3,0 4,1 2,1 4,3 5,6 1,2 2,4 2,6 0,2 0,5 0,8 4,1 10,1 16,-2 1,-1 2,-1 3,0 1,2 1,3 0,3 -8,5 -14,5 -20,3 -1,3 -2,6 -3,9 -2,4 -5,8 -7,10 -2,2 -4,3 -6,4 -2,1 -5,1 -7,-1 -1,-1 -2,-2 -4,-3 0,0 -1,-1 -1,-1 -3,-4 -3,-11 -1,-17 2,-6 5,-12 9,-15 1,0 1,-1 2,-1zm13 8c0,-3 0,-6 0,-8 0,-2 -1,-3 -1,-4 0,0 0,0 0,0 0,0 -1,0 -1,0 -1,0 -2,1 -2,3 0,2 0,4 1,5 1,1 1,3 3,4z"/>
  <path id="13" class="fil3" d="M978 273c0,-1 1,-2 2,-1 1,1 2,2 2,3 -4,8 -40,36 -50,41 -6,3 -17,6 -21,-1 -10,-15 57,-111 59,-111 6,-8 13,-14 18,-15 2,-1 4,-1 6,0 3,1 5,3 6,6 1,3 0,7 -3,13 -11,22 -58,58 -58,58 0,0 0,0 -1,0 -13,22 -22,42 -19,48 2,2 9,-1 11,-1 10,-5 44,-32 49,-40zm-3 -65c0,0 -14,21 -28,44 15,-12 38,-33 45,-48 3,-5 4,-9 3,-11 -1,0 -1,0 -2,0 -5,2 -12,7 -18,15z"/>
  <path id="14" class="fil3" d="M988 257c1,-1 2,0 4,1 1,2 2,3 1,4 -13,15 -14,26 -13,27 2,2 16,-7 25,-23l1 -1c1,-1 2,0 4,1 1,1 2,3 1,4 0,0 0,1 -1,1 -2,3 -15,21 -2,15 7,-3 15,-10 19,-16 1,-1 1,-3 3,-1 1,1 1,2 0,3 -5,6 -11,14 -18,18 -6,3 -14,2 -15,-6 -17,15 -32,12 -22,-9 3,-7 9,-15 14,-19z"/>
  <path id="15" class="fil3" d="M1075 194c1,-1 2,0 4,1 1,1 2,3 2,4 0,0 -13,18 -26,38l45 0c1,0 3,1 4,3 1,2 1,3 0,3l-52 0c-4,6 -7,11 -11,17l0 0c0,1 0,1 -1,1 -11,17 -16,27 -15,31 3,6 39,-22 39,-23 1,-1 2,-1 3,1 1,2 0,2 0,3 0,0 -40,39 -49,24 -3,-5 5,-22 17,-40 0,0 1,-2 1,-2 0,-13 -45,-12 -45,-12 -1,0 -3,-1 -4,-3 -1,-2 -1,-3 0,-3l59 0c15,-23 29,-43 30,-44zm-39 58c2,-3 4,-6 5,-8l-22 -1c5,2 14,6 17,9z"/>
  <path id="16" class="fil3" d="M1073 259c1,-1 3,0 4,2 1,2 2,3 1,4 -4,3 -10,11 -14,18 -2,5 -2,8 -1,9 7,1 27,-18 27,-18 1,-1 2,-2 3,-1 2,2 1,2 0,3 0,0 -29,32 -37,18 -2,-4 -1,-10 2,-16 4,-8 10,-15 14,-19zm11 -5c-1,1 -2,0 -4,-1 -1,-2 -2,-3 -1,-4l10 -11c1,-1 2,0 4,1 1,2 2,3 1,4l-10 11z"/>
  <path id="17" class="fil3" d="M1090 275l0 0c-1,-2 -2,-3 -1,-4l9 -9c1,-1 4,1 5,2 1,1 2,3 1,4 0,0 -12,16 -15,25 -1,2 1,2 3,0 8,-6 20,-18 30,-32l1 -2c1,-1 2,-1 3,1 2,1 3,5 3,5 0,0 -7,9 -7,13 0,0 6,-1 11,-5 1,-1 3,-3 4,-1 1,2 1,3 1,3 0,0 -17,15 -22,4l0 0c-6,7 -13,13 -18,16 -3,2 -5,3 -7,4 -3,1 -5,0 -8,-2 -1,-1 -1,-2 -2,-3 -1,-4 4,-12 8,-19z"/>
  <path id="18" class="fil3" d="M1163 269c1,2 0,3 -1,2 -1,0 -3,-2 -4,-4 -4,-3 -12,1 -15,3 -6,5 -10,12 -12,20 6,-2 22,-20 22,-20 1,-1 2,0 4,1 1,1 2,3 1,4 0,1 -2,5 -1,10 1,4 23,-15 24,-15 1,-1 2,-2 4,0 1,2 1,3 1,4 -12,10 -18,16 -23,19 -8,4 -14,2 -14,-7 -6,6 -13,11 -17,10 -1,-1 -2,-2 -4,-3 -2,-2 -2,-5 -2,-7 0,-2 1,-4 2,-7 2,-5 6,-10 11,-14 8,-6 22,-7 25,3z"/>
 </g>
</svg>
